<?xml version="1.0" standalone="no"?>
<!DOCTYPE svg PUBLIC "-//W3C//DTD SVG 20010904//EN"
 "http://www.w3.org/TR/2001/REC-SVG-20010904/DTD/svg10.dtd">
<svg version="1.0" xmlns="http://www.w3.org/2000/svg"
 width="1500.000000pt" height="1500.000000pt" viewBox="0 0 1500.000000 1500.000000"
 preserveAspectRatio="xMidYMid meet">
<metadata>
Created by potrace 1.16, written by Peter Selinger 2001-2019
</metadata>
<g transform="translate(0.000000,1500.000000) scale(0.100000,-0.100000)"
fill="#000000" stroke="none">
<path d="M7640 10255 c-96 -35 -548 -194 -1005 -354 -456 -160 -866 -309 -910
-331 -129 -64 -230 -177 -274 -308 -27 -79 -29 -270 -5 -353 40 -136 157 -281
279 -346 33 -17 445 -176 915 -353 l855 -322 50 18 c27 9 352 132 720 271 369
140 691 257 717 260 72 9 115 -4 163 -48 52 -48 69 -91 68 -175 -1 -90 -45
-164 -124 -205 -42 -21 -1579 -602 -1594 -602 -10 0 -729 272 -980 370 -77 31
-353 138 -613 238 l-472 183 2 -195 3 -195 450 -165 c247 -90 452 -168 455
-172 4 -7 1141 -441 1155 -441 6 0 516 191 1295 485 228 86 442 171 476 190
121 68 234 205 275 334 100 316 -75 643 -393 735 -65 19 -207 21 -276 5 -26
-6 -344 -124 -707 -262 -363 -138 -664 -250 -670 -250 -15 0 -1534 572 -1580
595 -100 50 -140 122 -134 241 4 62 9 80 32 110 50 66 83 82 167 81 72 0 92
-7 555 -182 l480 -182 484 0 483 0 794 312 794 311 0 134 0 133 -27 11 c-66
25 -1689 489 -1708 488 -11 -1 -99 -30 -195 -64z m697 -445 c274 -78 505 -143
513 -146 8 -3 -201 -90 -465 -193 l-479 -188 -204 138 -204 138 -208 -139
-207 -138 -264 100 c-145 55 -267 103 -272 107 -5 5 1238 448 1290 460 2 1
227 -62 500 -139z"/>
<path d="M10191 6140 c-219 -47 -259 -304 -58 -378 29 -11 84 -27 123 -36 125
-30 166 -74 113 -122 -17 -16 -37 -19 -108 -19 -84 0 -116 10 -212 62 -3 2
-18 -25 -33 -59 l-27 -63 21 -17 c70 -57 289 -81 399 -44 123 42 182 165 130
273 -28 57 -75 84 -219 123 -63 17 -123 38 -132 47 -24 22 -23 56 3 79 32 29
177 27 238 -4 25 -12 48 -19 51 -15 4 5 17 33 29 63 21 52 21 55 4 68 -51 37
-232 61 -322 42z"/>
<path d="M4420 6070 l0 -70 105 0 105 0 0 -270 0 -270 85 0 85 0 0 270 0 270
105 0 105 0 0 70 0 70 -295 0 -295 0 0 -70z"/>
<path d="M5180 5800 l0 -340 85 0 85 0 0 340 0 340 -85 0 -85 0 0 -340z"/>
<path d="M5520 6070 l0 -70 105 0 105 0 0 -270 0 -270 85 0 85 0 0 270 0 270
105 0 105 0 0 70 0 70 -295 0 -295 0 0 -70z"/>
<path d="M6343 5800 l-151 -340 87 0 88 0 27 70 28 70 152 0 153 0 27 -70 28
-70 88 0 89 0 -50 113 c-28 61 -96 214 -152 340 l-101 227 -81 0 -80 0 -152
-340z m280 45 l46 -110 -91 -3 c-50 -1 -92 -1 -94 1 -2 2 17 54 43 115 25 62
47 111 49 110 1 -2 23 -52 47 -113z"/>
<path d="M7110 5800 l0 -340 85 0 85 0 2 192 3 191 156 -189 155 -189 72 -3
72 -3 0 341 0 340 -80 0 -80 0 -2 -198 -3 -198 -160 195 -161 196 -72 3 -72 3
0 -341z"/>
<path d="M8350 5800 l0 -340 255 0 255 0 0 65 0 65 -170 0 -170 0 0 275 0 275
-85 0 -85 0 0 -340z"/>
<path d="M9030 5800 l0 -340 80 0 80 0 2 180 3 179 88 -144 88 -145 42 0 42 0
90 152 90 152 3 -187 2 -187 80 0 80 0 -2 338 -3 337 -67 3 -67 3 -117 -198
c-64 -109 -120 -201 -124 -206 -3 -4 -62 85 -130 198 l-124 205 -68 0 -68 0 0
-340z"/>
<path d="M6821 5080 c-76 -18 -125 -78 -125 -153 0 -70 26 -115 84 -144 135
-69 283 36 251 178 -20 87 -115 141 -210 119z m94 -95 c53 -53 21 -145 -50
-145 -73 0 -107 98 -51 146 35 31 70 30 101 -1z"/>
<path d="M6280 4925 l0 -155 45 0 45 0 0 40 0 40 43 0 c107 0 169 89 123 179
-21 40 -56 51 -161 51 l-95 0 0 -155z"/>
<path d="M7200 4926 l0 -156 45 0 45 0 0 41 c0 38 1 40 28 37 19 -2 32 -13 47
-40 19 -36 23 -38 68 -38 26 0 47 3 47 8 0 4 -11 24 -25 44 -30 44 -30 44 -6
69 39 42 36 121 -6 161 -22 21 -36 23 -134 26 l-109 4 0 -156z"/>
<path d="M7620 5045 l0 -35 50 0 50 0 0 -120 0 -120 40 0 40 0 0 120 0 120 50
0 50 0 0 35 0 35 -140 0 -140 0 0 -35z"/>
<path d="M8136 5048 c-8 -18 -37 -86 -65 -151 -28 -65 -51 -121 -51 -123 0 -2
20 -4 45 -4 39 0 47 3 55 25 9 23 14 25 75 25 61 0 65 -2 71 -25 6 -22 11 -25
55 -25 27 0 49 1 49 3 0 2 -28 70 -63 152 l-64 150 -47 3 c-44 3 -47 2 -60
-30z"/>
<path d="M8520 4925 l0 -155 110 0 110 0 0 35 0 35 -65 0 -65 0 0 120 0 120
-45 0 -45 0 0 -155z"/>
</g>
</svg>
